<svg id="Layer_1" data-name="Layer 1" xmlns="http://www.w3.org/2000/svg" width="64" height="64" viewBox="0 0 64 64"><defs><style>.cls-1{fill:#1d1d1b;}.cls-2{fill:#ffe19b;}.cls-3{fill:#cbe7f5;}.cls-4{fill:#f2910d;}.cls-5{fill:#fab900;}</style></defs><title>stars</title><g id="stars"><path class="cls-1" d="M12.58,15.71c-.25-.12-.5-2.29-.87-2.33s-1,2-1,2-1.92.17-2,.54,1.71,1.21,1.71,1.33-1,1.13-.75,1.54,1.71-.46,1.88-.46,1.67,1.46,2,1.29-.46-2-.5-2.12,1.38-1,1.38-1.25S12.83,15.84,12.58,15.71Zm8-5.33c.17-1.25-.65-2.58-2.08-2.29-1.87.38-2.37,2.29-1.54,3.08S20.41,11.63,20.58,10.38Zm34.63.25c.17-1.25-.65-2.58-2.08-2.29-1.87.38-2.37,2.29-1.54,3.08S55,11.88,55.2,10.63ZM38.3,28.35A1.86,1.86,0,0,0,40,25.8c-.8-1.74-2.78-1.78-3.36-.78S37,28.48,38.3,28.35Zm-2.46,8.15c-1.91.13-2.65,2-1.92,2.86s3.37.89,3.7-.33A1.86,1.86,0,0,0,35.84,36.51ZM10.49,52.83c-.85,1.71.37,3.28,1.5,3.1s2.47-2.46,1.58-3.36A1.86,1.86,0,0,0,10.49,52.83Zm32.84-33.7c.13.17,1.58-1.29,1.79-1.46s1.58.63,1.83.46-.5-1.75-.58-1.92,1.13-1.12,1.13-1.42-1.62-.17-1.79-.33-1-2.54-1.42-2.5-.68,3.36-.79,3.42c-.37.21-2.29,1.25-2.21,1.5s1.71.29,1.83.38S43.2,19,43.33,19.13ZM30.83,33.92c1-1,0-8,0-8.13s5.54-6,5-6.83-6.58-1.37-6.79-1.5-1.87-6.62-3-6.62-4.42,6.79-4.58,7c0,0-5-.71-5.54.13s3.92,6,3.92,6S16,31.3,17.08,32.59s6.83-2.67,7.42-2.5S29.79,34.88,30.83,33.92ZM11,44.17c.13-.12,1.38.75,1.67.54s-.21-1.46-.21-1.58,1.38-.92,1.29-1.12-1.79-.37-1.79-.37-.75-2.42-1.08-2.42-1,2-1,2.17c0,0-1.71.17-1.71.5s1.46.75,1.46.92-.37,2.13-.37,2.13a2.72,2.72,0,0,0,.67.29C10.16,45.3,10.83,44.3,11,44.17Zm23.42.71c-.21-.71-4.25-1-4.25-1s-1.21-4.62-2.42-4.54-3.46,4.42-3.62,4.83c0,0-4.42-.29-4.75.54s4,4.25,4,4.58S21.25,54,22,54.84s4.71-2.46,5.08-2.5,5,2.08,5.75,1.42S31.25,49.3,31.29,49,34.58,45.59,34.37,44.88ZM55.91,30.8c-.21-.87-6-1.37-6-1.37s-2-4.21-3.21-4.12S43,29.92,42.87,30.09c0,0-5.33,1.38-5.33,2.29S41.62,36,41.62,36,41,42.46,42,43s5.5-3.83,5.71-3.83,5.88,3.29,6.17,3-.71-6-.75-6.12S56.12,31.67,55.91,30.8Zm-15,18.67A8.74,8.74,0,0,0,39.75,52s-2,1-2,1.21,1.79.38,1.83.63-.37,1.54-.12,1.83,1.21-.87,1.42-1,1.58.79,1.79.67-.37-1.54-.37-1.71S44.12,52.59,44,52.3s-2-.29-2.12-.37S41.29,49.26,40.91,49.46Z"/><path class="cls-2" d="M18.54,9c.71-.14,1.11.51,1,1.13s-1.38.78-1.79.39S17.61,9.15,18.54,9Z"/><path class="cls-2" d="M53.16,9.22c.71-.14,1.11.51,1,1.13s-1.38.78-1.79.39S52.24,9.4,53.16,9.22Z"/><path class="cls-3" d="M39.2,26a.92.92,0,0,1-.86,1.26c-.62.06-1.08-1.16-.8-1.65S38.8,25.18,39.2,26Z"/><path class="cls-3" d="M35.77,37.39a.92.92,0,0,1,.88,1.25c-.16.6-1.47.6-1.83.16S34.83,37.45,35.77,37.39Z"/><path class="cls-2" d="M11.21,53.34a.92.92,0,0,1,1.52-.12c.44.44-.22,1.57-.78,1.66S10.79,54.18,11.21,53.34Z"/><path class="cls-2" d="M19,19c.12-.41,2.54.38,3.29.17s1.38-1.42,1.67-2S25.5,14,25.79,14s1.54,4.75,2,5.08,5.62,1,5.67,1.17S29.2,24.8,29.16,25s.25,6.42.08,6.33-3.37-3-4.54-3.08-5.37,2.46-5.5,2.17,3-6.71,2.83-7S19,19.26,19,19Z"/><path class="cls-1" d="M22.87,20.59c0-.13,1.42-2,1.71-1.79s.46.46.29.71a8.86,8.86,0,0,1-1.33,1.58C23.37,21.09,22.83,20.8,22.87,20.59Z"/><path class="cls-1" d="M24.79,23.34a23.93,23.93,0,0,1,2.13,3c-.08.21-.17.38-.29.38a20.71,20.71,0,0,1-2.46-2.83C24.12,23.63,24.66,23.59,24.79,23.34Z"/><path class="cls-1" d="M25.2,22.59c-.07-.11.42-.37.67-.33a9.47,9.47,0,0,1,1.79,2.29,1.3,1.3,0,0,1-.25.54S25.37,22.88,25.2,22.59Z"/><path class="cls-1" d="M26.79,21.3c-.08-.11.58-.46.79-.37s1.17,1.33,1.08,1.63-.17.46-.37.5S26.91,21.46,26.79,21.3Z"/><path class="cls-4" d="M23,45.84c.07-.2,2,.13,2.17-.08s2-3.58,2.21-3.54,1.21,3.21,1.33,3.25,2.79.25,2.83.54-2.25,2.54-2.17,2.88a15.84,15.84,0,0,1,.83,2.5c-.17,0-3-1.25-3.29-1.08a6.6,6.6,0,0,1-2,.67c-.12-.12.54-2.62.5-2.83S23,46,23,45.84Z"/><path class="cls-1" d="M26.75,46.8a5.34,5.34,0,0,1,1.33,1.92c0,.25-.21.54-.33.46a16.72,16.72,0,0,1-1.54-2C26.2,47.09,26.62,46.88,26.75,46.8Z"/><path class="cls-1" d="M27.79,45.76a5.34,5.34,0,0,1,1.33,1.92c0,.25-.21.54-.33.46a16.72,16.72,0,0,1-1.54-2C27.25,46,27.66,45.84,27.79,45.76Z"/><path class="cls-5" d="M40.62,32.67c-.26-.26,3.42-.83,3.58-1.08s2.25-3.54,2.5-3.5,1.71,3.13,1.92,3.17,5,.42,5,.67-2.5,3.83-2.5,4.08a16.82,16.82,0,0,1,.21,2.75,33.84,33.84,0,0,1-3-1.92,2,2,0,0,0,.08-.62,13.94,13.94,0,0,0-2-2.17c-.17,0-.67.33-.5.46a11.74,11.74,0,0,1,1.5,2.25c-.08.13-3.71,3.5-3.92,3.21s.58-4.67.42-5S40.87,32.92,40.62,32.67Z"/><path class="cls-1" d="M47.54,33.46s.54-.42.71-.33A14,14,0,0,1,50,36.21c-.08.25-.62.42-.62.42S47.7,33.55,47.54,33.46Z"/><path class="cls-1" d="M49.62,32.84c-.08-.24.5-.17.67,0s.71,1.29.54,1.42-.5.5-.58.38S49.7,33.09,49.62,32.84Z"/></g></svg>